HIERARCHY
ROOT Hips
{
    OFFSET 0.000000 0.000000 0.000000
    CHANNELS 6 Xposition Yposition Zposition Zrotation Xrotation Yrotation
    JOINT Spine
    {
        OFFSET 0.000001 7.974411 0.000018
        CHANNELS 3 Zrotation Xrotation Yrotation
        JOINT Spine1
        {
            OFFSET -0.000000 23.666340 0.000011
            CHANNELS 3 Zrotation Xrotation Yrotation
            JOINT Neck
            {
                OFFSET 0.000001 26.488382 -0.000016
                CHANNELS 3 Zrotation Xrotation Yrotation
                JOINT Head
                {
                    OFFSET -0.000000 16.189651 2.035183
                    CHANNELS 3 Zrotation Xrotation Yrotation
                    End Site
                    {
                        OFFSET 0.000000 20.351660 0.000000
                    }
                }
            }
            JOINT LeftShoulder
            {
                OFFSET 4.036570 20.304853 -0.371922
                CHANNELS 3 Zrotation Xrotation Yrotation
                JOINT LeftArm
                {
                    OFFSET 12.502551 0.000002 -0.000005
                    CHANNELS 3 Zrotation Xrotation Yrotation
                    JOINT LeftForeArm
                    {
                        OFFSET 31.806904 0.000000 0.000008
                        CHANNELS 3 Zrotation Xrotation Yrotation
                        JOINT LeftHand
                        {
                            OFFSET 24.843227 0.000001 -0.000003
                            CHANNELS 3 Zrotation Xrotation Yrotation
                            JOINT LeftHandThumb1
                            {
                                OFFSET 2.126757 -2.416752 3.383459
                                CHANNELS 3 Zrotation Xrotation Yrotation
                                JOINT LeftHandThumb2
                                {
                                    OFFSET 3.212125 0.000001 0.000002
                                    CHANNELS 3 Zrotation Xrotation Yrotation
                                    JOINT LeftHandThumb3
                                    {
                                        OFFSET 2.745442 0.000003 0.000001
                                        CHANNELS 3 Zrotation Xrotation Yrotation
                                        End Site
                                        {
                                            OFFSET 2.793713 0.000000 0.000000
                                        }
                                    }
                                }
                            }
                            JOINT LeftHandIndex1
                            {
                                OFFSET 8.700338 0.000001 3.383464
                                CHANNELS 3 Zrotation Xrotation Yrotation
                                JOINT LeftHandIndex2
                                {
                                    OFFSET 4.833520 0.000002 -0.000004
                                    CHANNELS 3 Zrotation Xrotation Yrotation
                                    JOINT LeftHandIndex3
                                    {
                                        OFFSET 2.416750 -0.000005 0.000000
                                        CHANNELS 3 Zrotation Xrotation Yrotation
                                        End Site
                                        {
                                            OFFSET 2.459254 0.000000 0.000000
                                        }
                                    }
                                }
                            }
                            JOINT LeftHandMiddle1
                            {
                                OFFSET 8.700338 0.000004 1.121372
                                CHANNELS 3 Zrotation Xrotation Yrotation
                                JOINT LeftHandMiddle2
                                {
                                    OFFSET 5.316875 0.000004 -0.000004
                                    CHANNELS 3 Zrotation Xrotation Yrotation
                                    JOINT LeftHandMiddle3
                                    {
                                        OFFSET 2.900104 -0.000004 -0.000001
                                        CHANNELS 3 Zrotation Xrotation Yrotation
                                        End Site
                                        {
                                            OFFSET 2.951103 0.000000 0.000000
                                        }
                                    }
                                }
                            }
                            JOINT LeftHandRing1
                            {
                                OFFSET 8.216979 -0.000006 -1.121373
                                CHANNELS 3 Zrotation Xrotation Yrotation
                                JOINT LeftHandRing2
                                {
                                    OFFSET 4.833519 0.000003 -0.000003
                                    CHANNELS 3 Zrotation Xrotation Yrotation
                                    JOINT LeftHandRing3
                                    {
                                        OFFSET 2.416750 -0.000006 -0.000001
                                        CHANNELS 3 Zrotation Xrotation Yrotation
                                        End Site
                                        {
                                            OFFSET 2.459254 0.000000 0.000000
                                        }
                                    }
                                }
                            }
                            JOINT LeftHandPinky1
                            {
                                OFFSET 7.733624 -0.000004 -3.383464
                                CHANNELS 3 Zrotation Xrotation Yrotation
                                JOINT LeftHandPinky2
                                {
                                    OFFSET 3.866813 -0.000001 -0.000002
                                    CHANNELS 3 Zrotation Xrotation Yrotation
                                    JOINT LeftHandPinky3
                                    {
                                        OFFSET 1.933416 0.000007 -0.000001
                                        CHANNELS 3 Zrotation Xrotation Yrotation
                                        End Site
                                        {
                                            OFFSET 1.967405 0.000000 0.000000
                                        }
                                    }
                                }
                            }
                        }
                    }
                }
            }
            JOINT RightShoulder
            {
                OFFSET -4.036570 20.304846 -0.371914
                CHANNELS 3 Zrotation Xrotation Yrotation
                JOINT RightArm
                {
                    OFFSET -12.502551 -0.000003 0.000000
                    CHANNELS 3 Zrotation Xrotation Yrotation
                    JOINT RightForeArm
                    {
                        OFFSET -31.806898 0.000000 -0.000002
                        CHANNELS 3 Zrotation Xrotation Yrotation
                        JOINT RightHand
                        {
                            OFFSET -24.843227 0.000007 0.000003
                            CHANNELS 3 Zrotation Xrotation Yrotation
                            JOINT RightHandThumb1
                            {
                                OFFSET -2.126744 -2.416756 3.383466
                                CHANNELS 3 Zrotation Xrotation Yrotation
                                JOINT RightHandThumb2
                                {
                                    OFFSET -3.212128 -0.000004 0.000003
                                    CHANNELS 3 Zrotation Xrotation Yrotation
                                    JOINT RightHandThumb3
                                    {
                                        OFFSET -2.745442 0.000009 -0.000005
                                        CHANNELS 3 Zrotation Xrotation Yrotation
                                        End Site
                                        {
                                            OFFSET -2.793713 0.000000 0.000000
                                        }
                                    }
                                }
                            }
                            JOINT RightHandIndex1
                            {
                                OFFSET -8.700331 -0.000003 3.383460
                                CHANNELS 3 Zrotation Xrotation Yrotation
                                JOINT RightHandIndex2
                                {
                                    OFFSET -4.833517 -0.000006 -0.000003
                                    CHANNELS 3 Zrotation Xrotation Yrotation
                                    JOINT RightHandIndex3
                                    {
                                        OFFSET -2.416764 0.000007 0.000000
                                        CHANNELS 3 Zrotation Xrotation Yrotation
                                        End Site
                                        {
                                            OFFSET -2.459254 0.000000 0.000000
                                        }
                                    }
                                }
                            }
                            JOINT RightHandMiddle1
                            {
                                OFFSET -8.700334 0.000007 1.121377
                                CHANNELS 3 Zrotation Xrotation Yrotation
                                JOINT RightHandMiddle2
                                {
                                    OFFSET -5.316870 0.000000 -0.000001
                                    CHANNELS 3 Zrotation Xrotation Yrotation
                                    JOINT RightHandMiddle3
                                    {
                                        OFFSET -2.900106 -0.000007 -0.000003
                                        CHANNELS 3 Zrotation Xrotation Yrotation
                                        End Site
                                        {
                                            OFFSET -2.951103 0.000000 0.000000
                                        }
                                    }
                                }
                            }
                            JOINT RightHandRing1
                            {
                                OFFSET -8.216982 0.000008 -1.121375
                                CHANNELS 3 Zrotation Xrotation Yrotation
                                JOINT RightHandRing2
                                {
                                    OFFSET -4.833517 -0.000006 -0.000004
                                    CHANNELS 3 Zrotation Xrotation Yrotation
                                    JOINT RightHandRing3
                                    {
                                        OFFSET -2.416764 0.000007 0.000001
                                        CHANNELS 3 Zrotation Xrotation Yrotation
                                        End Site
                                        {
                                            OFFSET -2.459254 0.000000 0.000000
                                        }
                                    }
                                }
                            }
                            JOINT RightHandPinky1
                            {
                                OFFSET -7.733631 0.000011 -3.383461
                                CHANNELS 3 Zrotation Xrotation Yrotation
                                JOINT RightHandPinky2
                                {
                                    OFFSET -3.866817 0.000004 0.000001
                                    CHANNELS 3 Zrotation Xrotation Yrotation
                                    JOINT RightHandPinky3
                                    {
                                        OFFSET -1.933406 0.000003 0.000002
                                        CHANNELS 3 Zrotation Xrotation Yrotation
                                        End Site
                                        {
                                            OFFSET -1.967405 0.000000 0.000000
                                        }
                                    }
                                }
                            }
                        }
                    }
                }
            }
        }
    }
    JOINT LeftUpLeg
    {
        OFFSET 10.175827 0.000003 0.000004
        CHANNELS 3 Zrotation Xrotation Yrotation
        JOINT LeftLeg
        {
            OFFSET 0.000001 -42.882942 -0.000010
            CHANNELS 3 Zrotation Xrotation Yrotation
            JOINT LeftFoot
            {
                OFFSET 0.000001 -39.006767 0.000004
                CHANNELS 3 Zrotation Xrotation Yrotation
                JOINT LeftToeBase
                {
                    OFFSET 0.000000 -6.614288 15.263754
                    CHANNELS 3 Zrotation Xrotation Yrotation
                    End Site
                    {
                        OFFSET 0.000000 0.000000 4.070332
                    }
                }
            }
        }
    }
    JOINT RightUpLeg
    {
        OFFSET -10.175827 -0.000003 -0.000004
        CHANNELS 3 Zrotation Xrotation Yrotation
        JOINT RightLeg
        {
            OFFSET 0.000000 -42.882950 0.000010
            CHANNELS 3 Zrotation Xrotation Yrotation
            JOINT RightFoot
            {
                OFFSET -0.000002 -39.006771 -0.000009
                CHANNELS 3 Zrotation Xrotation Yrotation
                JOINT RightToeBase
                {
                    OFFSET 0.000002 -6.614288 15.263745
                    CHANNELS 3 Zrotation Xrotation Yrotation
                    End Site
                    {
                        OFFSET 0.000000 0.000000 4.070332
                    }
                }
            }
        }
    }
}
MOTION
Frames:    4
Frame Time:    0.002778
-4.873273    85.973969    227.332123    13.360950    -5.714615    -29.115980    0.663897    6.423490    2.144715    3.319449    6.413229    1.847798    -0.147182    2.056640    1.566030    -0.147188    2.056641    1.566033    -6.980371    -1.859818    -1.482699    -57.228962    21.244930    -23.123707    -13.777710    1.875056    -132.666321    19.681040    6.428052    17.704969    47.448200    38.866432    -34.355030    -35.000000    -0.000002    -0.000003    -0.000000    0.000000    -0.000000    0.000000    10.000000    -0.000002    -0.000000    0.000000    -0.000000    -0.000000    0.000000    -0.000000    -0.000000    0.000000    -0.000000    -0.000000    0.000000    -0.000000    -0.000000    0.000000    -0.000000    -0.000000    0.000000    -0.000000    -0.000000    0.000000    -0.000000    -0.000000    0.000000    -0.000000    0.000000    -10.000002    0.000002    -0.000000    0.000000    -0.000000    -0.000000    0.000000    -0.000000    -2.174401    -2.645799    5.972449    15.406179    -5.000681    28.353237    -12.425425    -11.836223    58.925114    1.138438    -0.366413    -20.156927    -47.448208    38.866432    34.355022    34.999996    -0.000001    0.000005    -0.000000    0.000000    -0.000000    -0.000001    10.000003    0.000000    -0.000000    0.000000    -0.000000    -0.000000    0.000000    -0.000000    -0.000000    0.000000    -0.000000    -0.000000    0.000000    -0.000000    -0.000000    0.000000    -0.000000    -0.000000    0.000000    -0.000000    -0.000000    0.000000    -0.000000    -0.000000    0.000000    -0.000000    -0.000000    -9.999993    -0.000003    -0.000000    0.000000    -0.000000    -0.000000    0.000000    -0.000000    -1.858799    -9.098363    4.904868    -0.000004    45.970387    0.000005    -14.820979    -36.080708    24.532427    0.000000    -1.912337    0.000001    -23.170368    -35.620510    -3.821010    0.000012    66.949463    -0.000018    12.827533    -30.544069    0.397583    0.000000    -0.297608    -0.000001    
-4.942749    86.062592    227.290161    13.413598    -5.632912    -28.990225    0.657940    6.378342    2.236089    3.289653    6.368336    1.943902    -0.127851    2.038521    1.519147    -0.127844    2.038524    1.519140    -6.986821    -1.872019    -1.513726    -57.104439    21.206282    -23.236797    -13.789761    1.879166    -132.666946    19.693893    6.435932    17.713448    47.448208    38.866428    -34.355019    -35.000008    -0.000002    -0.000002    -0.000000    0.000000    -0.000000    -0.000003    9.999996    -0.000001    -0.000000    0.000000    -0.000000    -0.000000    0.000000    -0.000000    -0.000000    0.000000    -0.000000    -0.000000    0.000000    -0.000000    -0.000000    0.000000    -0.000000    -0.000000    0.000000    -0.000000    -0.000000    0.000000    -0.000000    -0.000000    0.000000    -0.000000    0.000000    -10.000002    0.000000    -0.000000    0.000000    -0.000000    -0.000000    0.000000    -0.000000    -2.267299    -2.729532    5.988262    15.311481    -5.337405    28.713928    -12.439934    -11.908584    59.379822    1.009183    -0.318585    -20.198839    -47.448212    38.866440    34.355026    34.999992    0.000004    0.000007    -0.000000    0.000000    -0.000000    0.000000    10.000002    -0.000004    -0.000000    0.000000    -0.000000    -0.000000    0.000000    -0.000000    -0.000000    0.000000    -0.000000    -0.000000    0.000000    -0.000000    -0.000000    0.000000    -0.000000    -0.000000    0.000000    -0.000000    -0.000000    0.000000    -0.000000    -0.000000    0.000000    -0.000000    -0.000005    -9.999999    -0.000006    -0.000000    0.000000    -0.000000    -0.000000    0.000000    -0.000000    -1.811989    -9.082339    4.817245    0.000002    45.672798    -0.000000    -14.936722    -35.843533    24.429258    0.000000    -1.870934    -0.000001    -23.105551    -35.563011    -3.813211    -0.000004    66.761574    0.000007    12.749429    -30.489378    0.214649    0.000000    -0.294629    -0.000001    
-5.013319    86.152809    227.246017    13.466930    -5.549742    -28.857491    0.652571    6.335060    2.326016    3.262823    6.325279    2.038162    -0.109189    2.015324    1.479120    -0.109184    2.015324    1.479117    -6.987192    -1.878642    -1.551109    -56.977440    21.161860    -23.350813    -13.797503    1.873602    -132.662842    19.698538    6.435674    17.708616    47.448215    38.866428    -34.355030    -35.000015    0.000002    -0.000009    -0.000000    0.000000    -0.000000    -0.000000    9.999997    0.000005    -0.000000    0.000000    -0.000000    -0.000000    0.000000    -0.000000    -0.000000    0.000000    -0.000000    -0.000000    0.000000    -0.000000    -0.000000    0.000000    -0.000000    -0.000000    0.000000    -0.000000    -0.000000    0.000000    -0.000000    -0.000000    0.000000    -0.000000    0.000000    -10.000001    0.000000    -0.000000    0.000000    -0.000000    -0.000000    0.000000    -0.000000    -2.365538    -2.814716    6.010359    15.209469    -5.677018    29.085909    -12.497832    -11.929126    59.784843    0.879274    -0.270833    -20.303776    -47.448200    38.866417    34.355030    35.000000    -0.000004    -0.000000    -0.000000    0.000000    -0.000000    -0.000001    10.000005    -0.000006    -0.000000    0.000000    -0.000000    -0.000000    0.000000    -0.000000    -0.000000    0.000000    -0.000000    -0.000000    0.000000    -0.000000    -0.000000    0.000000    -0.000000    -0.000000    0.000000    -0.000000    -0.000000    0.000000    -0.000000    -0.000000    0.000000    -0.000000    0.000001    -9.999997    -0.000001    -0.000000    0.000000    -0.000000    -0.000000    0.000000    -0.000000    -1.763071    -9.070719    4.730027    -0.000005    45.378204    0.000010    -15.069814    -35.599152    24.322424    0.000000    -1.847922    -0.000000    -23.041130    -35.502728    -3.807669    0.000011    66.570503    -0.000019    12.673250    -30.437851    0.028261    -0.000001    -0.293016    0.000009    
-5.081003    86.241379    227.201843    13.516850    -5.469440    -28.719603    0.647534    6.293370    2.413363    3.237631    6.283806    2.129603    -0.086526    1.991808    1.444483    -0.086523    1.991810    1.444482    -6.987214    -1.891165    -1.592248    -56.854435    21.110340    -23.463900    -13.806016    1.863218    -132.660049    19.704960    6.432568    17.694946    47.448231    38.866440    -34.355049    -35.000000    0.000001    0.000000    -0.000000    0.000000    -0.000000    -0.000004    10.000000    0.000004    -0.000000    0.000000    -0.000000    -0.000000    0.000000    -0.000000    -0.000000    0.000000    -0.000000    -0.000000    0.000000    -0.000000    -0.000000    0.000000    -0.000000    -0.000000    0.000000    -0.000000    -0.000000    0.000000    -0.000000    -0.000000    0.000000    -0.000000    -0.000003    -9.999999    -0.000000    -0.000000    0.000000    -0.000000    -0.000000    0.000000    -0.000000    -2.462780    -2.898946    6.026001    15.098798    -6.025661    29.464422    -12.550453    -11.933704    60.199066    0.799494    -0.241522    -20.432827    -47.448212    38.866440    34.355026    35.000000    0.000003    -0.000001    -0.000000    0.000000    -0.000000    -0.000001    10.000001    -0.000002    -0.000000    0.000000    -0.000000    -0.000000    0.000000    -0.000000    -0.000000    0.000000    -0.000000    -0.000000    0.000000    -0.000000    -0.000000    0.000000    -0.000000    -0.000000    0.000000    -0.000000    -0.000000    0.000000    -0.000000    -0.000000    0.000000    -0.000000    0.000000    -10.000001    0.000002    -0.000000    0.000000    -0.000000    -0.000000    0.000000    -0.000000    -1.711826    -9.065034    4.640008    0.000003    45.101055    -0.000001    -15.216304    -35.350876    24.217365    -0.000000    -1.837564    -0.000000    -22.980988    -35.437599    -3.807910    -0.000000    66.380821    -0.000000    12.597600    -30.389677    -0.157320    0.000000    -0.290135    0.000001    
